<svg width="457" height="351" viewBox="0 0 457 351" fill="none" xmlns="http://www.w3.org/2000/svg">
<path fill-rule="evenodd" clip-rule="evenodd" d="M181.39 55.737L178.545 60.614H175.816L174.946 62.048H177.703L171.634 72.431C170.357 74.639 171.258 76.677 173.696 76.677C174.919 76.677 176.234 76.04 177.549 75.056L176.771 76.39H179.817L184.405 68.503C189.049 62.736 191.111 63.483 189.804 65.693L185.884 72.433C184.606 74.643 185.507 76.681 187.945 76.681C189.741 76.681 191.733 75.311 193.638 73.476C193.784 75.333 195.305 76.681 197.728 76.681C201.151 76.681 204.548 74.041 207.044 71.173C206.847 70.77 206.325 70.312 205.918 70.14L205.715 70.366C203.537 72.863 200.751 74.841 198.633 74.841C196.773 74.841 195.669 73.695 197.063 71.286L197.353 70.766C199.299 71.571 202.957 71.197 205.221 67.326L205.658 66.579C207.283 63.826 205.716 61.761 203.248 61.761C200.809 61.761 198.865 63.024 197.588 65.202L194.658 70.167L194.482 70.367C192.305 72.861 190.187 74.839 188.851 74.839C188.185 74.839 187.805 74.379 188.501 73.204L192.856 65.661C194.162 63.396 192.916 61.761 191.232 61.761C189.925 61.761 188.53 62.478 187.022 64.026L191.84 55.737H188.821L180.398 70.175L180.228 70.365C178.052 72.861 175.931 74.839 174.595 74.839C173.928 74.839 173.551 74.379 174.249 73.204L180.721 62.046H183.188L184.06 60.613H181.564L184.409 55.738L181.39 55.737ZM149.081 60.616L151.926 55.741H154.945L152.099 60.614H154.598L153.726 62.05H151.261L144.785 73.208C144.088 74.383 144.466 74.843 145.133 74.843C146.468 74.843 148.59 72.864 150.766 70.368L150.922 70.192L152.159 68.102L153.639 65.549C155.381 62.565 157.179 61.649 159.501 61.649C162.347 61.649 164.03 64.602 162.202 67.729L159.357 72.575C160.868 72.546 162.551 71.831 163.915 70.368L164.12 70.14C164.526 70.312 165.048 70.769 165.248 71.173C163.708 72.979 160.864 74.069 159.064 74.069H158.398C155.129 78.153 149.782 77.41 149.788 73.608C147.922 75.377 145.985 76.681 144.231 76.681C141.793 76.681 140.892 74.643 142.17 72.434L148.238 62.051H145.481L146.351 60.616H149.081ZM159.879 66.614C160.907 64.872 160.441 63.667 159.457 63.577C158.692 63.507 157.614 64.113 156.687 65.669L155.236 68.106L152.942 72.034C151.142 75.131 154.599 75.59 156.021 73.18L156.051 73.124C155.876 72.836 155.76 72.491 155.76 72.12C155.76 71.145 156.543 70.341 157.53 70.341H157.675L159.879 66.614ZM203.191 66.583C204.203 64.839 203.671 63.922 202.702 63.979V63.98C201.95 64.024 200.933 64.658 200.17 65.95L198.224 69.307C199.357 69.709 201.304 69.767 202.754 67.329L203.191 66.583ZM247.02 58.516C245.306 60.036 245.162 61.73 246.237 63.106L246.499 63.45L246.437 63.5369C245.108 65.3928 243.333 67.8725 241.389 70.134L241.391 70.137L241.188 70.366C239.823 71.827 238.142 72.546 236.63 72.575L239.473 67.727C241.303 64.601 239.62 61.647 236.773 61.647C234.453 61.647 232.653 62.565 230.913 65.547L229.429 68.1L228.191 70.192L228.037 70.368C225.54 73.208 223.394 75.039 221.012 76.044L227.775 64.63H226.005C226.005 63.396 224.729 61.76 222.841 61.76C221.217 61.76 218.951 63.025 217.673 65.204L213.435 72.431C212.157 74.639 213.057 76.677 215.495 76.677C216.338 76.677 217.355 76.303 218.372 75.673L217.529 77.077C213.465 78.31 210.909 79.945 210.909 82.183C210.909 85.052 215.351 85.654 217.529 81.983L219.821 78.053C222.237 77.31 224.604 75.906 227.061 73.589C227.04 77.406 232.398 78.156 235.671 74.065H236.339C238.139 74.065 240.984 72.976 242.523 71.169C243.972 69.505 245.103 68.014 247.513 64.774L247.918 65.263C248.295 65.75 248.443 66.353 248.093 66.954L244.9 72.433C243.62 74.643 244.521 76.679 246.961 76.679C248.491 76.679 250.165 75.684 251.803 74.257C251.753 75.643 252.69 76.679 254.422 76.679C255.262 76.679 256.279 76.306 257.296 75.675L256.454 77.077C252.389 78.31 249.838 79.945 249.838 82.183C249.838 85.052 254.278 85.653 256.454 81.983L258.746 78.053C261.206 77.295 263.616 75.847 266.123 73.454C266.259 75.322 267.781 76.679 270.213 76.679C272.671 76.679 275.112 75.316 277.217 73.489C277.1 77.394 282.527 78.192 285.829 74.067H286.497C287.442 74.067 288.672 73.759 289.854 73.214C289.041 75.287 289.788 76.679 291.515 76.679C293.171 76.679 295.028 75.187 296.479 73.811C296.189 75.416 297.146 76.679 299.063 76.679C301.559 76.679 304.433 74.042 306.931 71.173L306.929 71.171C308.284 69.6266 309.512 67.9951 310.499 66.6853L310.499 66.6851C310.759 66.3395 311.003 66.0163 311.227 65.723C310.827 66.7632 310.633 68.082 310.443 69.3748C310.068 71.9297 309.707 74.383 307.801 74.383C306.785 74.383 306.381 73.293 306.381 73.293L304.491 74.268C304.491 74.268 305.042 76.68 307.801 76.68C308.069 76.68 308.313 76.6544 308.575 76.6269L308.641 76.62C308.656 76.62 308.671 76.6133 308.686 76.6065C308.702 76.5998 308.717 76.593 308.732 76.593C311.808 76.193 314.856 73.783 317.12 71.173C316.947 70.714 316.424 70.255 315.99 70.139L315.787 70.368C314.722 71.6003 313.502 72.6893 312.157 73.608C312.532 72.4942 312.729 71.1467 312.942 69.69C313.273 67.4322 313.641 64.9123 314.771 62.594L312.507 61.389C312.276 61.7019 311.994 62.0902 311.672 62.5352C310.249 64.4981 308.026 67.5651 305.801 70.137V70.139L305.598 70.368C303.422 72.864 301.303 74.84 299.967 74.84C299.3 74.84 298.922 74.381 299.62 73.206L306.064 62.048H303.044L297.674 71.313C295.381 73.377 293.612 74.525 293.03 74.266C292.33 73.9747 292.929 72.9903 293.321 72.3458C293.351 72.2956 293.381 72.2475 293.408 72.202L299.301 62.05H296.281L291.547 70.142L291.348 70.368C289.984 71.831 288.301 72.548 286.79 72.578L289.635 67.729C291.463 64.602 289.785 61.649 286.936 61.649C284.613 61.649 282.813 62.567 281.072 65.552L279.59 68.102L278.353 70.192L278.198 70.37C276.022 72.866 273.234 74.843 271.115 74.843C269.257 74.843 268.155 73.697 269.548 71.288L269.838 70.77C271.782 71.574 275.442 71.2 277.705 67.327L278.143 66.581C279.766 63.827 278.201 61.762 275.733 61.762C273.293 61.762 271.346 63.027 270.07 65.206L267.144 70.171L266.969 70.368C264.47 73.208 262.324 75.041 259.941 76.046L266.705 64.63H264.933C264.933 63.396 263.656 61.762 261.769 61.762C260.144 61.762 257.88 63.025 256.602 65.204L253.706 70.141L253.698 70.137L253.495 70.367C251.319 72.862 249.197 74.841 247.861 74.841C247.194 74.841 246.819 74.381 247.515 73.206L250.533 67.986C251.578 66.179 251.084 65.116 250.096 63.94L248.413 61.93C247.978 61.385 247.978 60.784 248.588 60.21L247.02 58.516ZM237.15 66.614C238.177 64.872 237.71 63.666 236.726 63.576V63.577C235.962 63.507 234.886 64.113 233.958 65.669L232.505 68.106L230.213 72.034C228.413 75.131 231.869 75.59 233.291 73.18L233.319 73.124C233.145 72.836 233.029 72.491 233.029 72.12C233.029 71.145 233.813 70.341 234.799 70.341H234.946L237.15 66.614ZM286.884 63.576C287.868 63.666 288.337 64.872 287.31 66.614L285.104 70.341H284.957C283.971 70.341 283.189 71.145 283.189 72.12C283.189 72.491 283.305 72.836 283.478 73.124L283.448 73.18C282.027 75.59 278.573 75.131 280.373 72.034L282.665 68.106L284.116 65.669C285.043 64.113 286.119 63.507 286.884 63.577V63.576ZM275.669 66.583C276.681 64.84 276.152 63.924 275.184 63.981V63.982C274.432 64.026 273.414 64.66 272.652 65.952L270.704 69.307C271.837 69.709 273.783 69.767 275.234 67.329L275.669 66.583ZM222.781 64.182C223.804 64.176 224.459 65.066 223.626 66.582L221.334 70.542C219.504 73.439 217.674 74.842 216.396 74.842C215.729 74.842 215.351 74.383 216.047 73.208L220.259 65.952C220.969 64.735 221.986 64.187 222.781 64.182ZM262.549 66.582C263.382 65.066 262.727 64.176 261.704 64.182C260.909 64.187 259.892 64.735 259.182 65.952L254.972 73.208C254.278 74.383 254.654 74.842 255.321 74.842C256.597 74.842 258.429 73.439 260.257 70.542L262.549 66.582ZM216.366 79.09L216.365 79.0913C214.075 79.9792 213.348 80.8671 213.348 81.641C213.348 82.444 214.364 82.615 215.002 81.497L216.365 79.0913L216.366 79.091V79.09ZM255.29 79.0913L255.291 79.09V79.091L255.29 79.0913ZM255.29 79.0913L253.929 81.497C253.289 82.615 252.273 82.444 252.273 81.641C252.273 80.8671 252.999 79.9792 255.29 79.0913ZM100.641 67.478H129.563V69.428H100.641V67.478ZM356.593 67.478H327.671V69.428H356.593V67.478Z" fill="#766458"/>
<path fill-rule="evenodd" clip-rule="evenodd" d="M194.44 37.011V44.747H173.624V0H194.44V7.67H181.24V18.474H191.775V26.144H181.24V37.01L194.44 37.011ZM215.786 44.747V37.011L205.189 37.01V0H197.573V44.747H215.786ZM322.316 44.747V37.011H309.115V26.144H319.65V18.474H309.115V7.671H322.316V0H301.5V44.747H322.316ZM297.075 0.001H289.524L282.731 21.606L275.94 0.001H268.388V44.748H276.005V22.758L278.987 34.136H286.412L289.459 22.758V44.748H297.075V0.001ZM257.615 7.671H252.092V37.011H257.616L257.615 7.671ZM265.295 4.732C265.295 2.11 263.137 0.001 260.597 0.001L249.173 0.002C246.573 0.002 244.477 2.111 244.477 4.732V40.017C244.477 42.574 246.573 44.747 249.173 44.747H260.597C263.137 44.747 265.295 42.574 265.295 40.017V4.732ZM232.587 28.253L240.265 26.463V40.015C240.265 42.572 238.108 44.745 235.569 44.745H224.144C221.544 44.745 219.449 42.572 219.449 40.015V4.731C219.449 2.109 221.544 0.001 224.144 0.001H235.567C238.107 0.001 240.264 2.109 240.264 4.731V13.808L232.586 15.598V7.67H227.064V37.01H232.586L232.587 28.253ZM169.857 0.001H162.18L161.61 37.011H160.848L155.96 0.001H148.408L143.648 37.011H142.824L142.189 0.001H134.573L135.715 44.747H150.248L152.215 26.273L154.183 44.747H168.653L169.857 0.001Z" fill="#81B3D3"/>
<path fill-rule="evenodd" clip-rule="evenodd" d="M9.289 189.762C9.366 189.84 9.405 189.917 9.405 189.995C9.483 189.995 9.56 190.033 9.637 190.111C11.727 192.433 14.089 194.601 16.721 196.614C19.353 198.549 22.373 199.594 25.779 199.749C25.857 199.749 25.934 199.789 26.011 199.866H26.36C26.437 199.866 26.515 199.904 26.592 199.982H27.869C28.257 199.904 28.605 199.827 28.915 199.749C30.156 199.516 31.3395 199.043 32.399 198.356C33.559 197.659 34.45 196.807 35.069 195.801L35.302 195.336L35.534 194.872C35.689 194.33 35.805 193.827 35.883 193.362C35.96 192.898 35.999 192.472 35.999 192.085C35.999 189.995 35.069 188.253 33.212 186.859C31.4805 185.416 29.517 184.278 27.405 183.491C26.6107 183.198 25.7954 182.965 24.966 182.795C24.2379 182.575 23.5021 182.381 22.76 182.214H22.528C22.45 182.137 22.373 182.098 22.296 182.098C18.5304 181.18 14.9274 179.692 11.612 177.685C8.282 175.595 5.999 172.614 4.76 168.743C4.51737 167.933 4.28502 167.12 4.063 166.304C3.90406 165.42 3.78792 164.529 3.715 163.634C3.64366 163.368 3.60471 163.095 3.599 162.82V160.033C3.676 159.414 3.792 158.795 3.947 158.175C4.18741 156.594 4.57612 155.038 5.108 153.53C5.65 151.982 6.347 150.588 7.198 149.35C9.676 145.246 12.85 142.304 16.721 140.524C20.67 138.743 24.773 137.853 29.031 137.853C30.038 137.853 31.044 137.93 32.051 138.085C33.1384 138.163 34.2228 138.279 35.302 138.433C38.126 138.908 40.8904 139.687 43.547 140.756C46.334 141.84 48.889 143.117 51.212 144.588L44.825 158.872C42.7406 157.328 40.5256 155.968 38.205 154.808C35.883 153.646 33.367 153.066 30.657 153.066H29.727C27.947 153.298 26.283 154.111 24.734 155.504C23.186 156.82 22.412 158.253 22.412 159.801V160.498C22.489 160.73 22.605 160.962 22.76 161.195C22.915 161.737 23.186 162.24 23.573 162.705C23.96 163.169 24.386 163.595 24.85 163.982C25.702 164.679 26.94 165.337 28.567 165.956C30.192 166.498 31.896 167.04 33.677 167.582C35.147 167.969 36.579 168.356 37.973 168.743C39.367 169.053 40.528 169.363 41.457 169.673C45.792 171.221 49.044 173.814 51.212 177.453C53.379 181.014 54.502 184.808 54.579 188.833V189.414C54.579 189.879 54.541 190.344 54.463 190.808V192.085C53.999 196.111 52.683 199.943 50.515 203.582C48.425 207.221 45.599 210.008 42.038 211.944C40.7162 212.565 39.3588 213.108 37.973 213.569C36.589 213.954 35.1952 214.303 33.793 214.615C32.643 214.846 31.4792 215.001 30.309 215.079C29.1927 215.231 28.0676 215.308 26.941 215.311H25.663C21.018 215.157 16.451 214.15 11.96 212.291C7.47 210.356 3.483 207.801 0 204.627L9.289 189.762ZM225.183 143.516C218.835 147 213.88 152.033 210.319 158.613L210.318 158.612C209.295 160.508 208.44 162.489 207.763 164.534C207.078 166.506 206.535 168.524 206.138 170.573C205.905 171.658 205.75 172.702 205.673 173.708C205.596 174.715 205.557 175.722 205.557 176.728C205.557 183.541 207.415 190.122 211.131 196.47C214.847 202.741 219.957 207.58 226.46 210.986C228.828 212.212 231.319 213.185 233.892 213.889C236.48 214.578 239.122 215.044 241.789 215.283H243.299C243.838 215.36 244.381 215.399 244.925 215.399C252.511 215.399 259.751 213.347 266.641 209.244C273.531 205.064 278.602 199.219 281.853 191.709C282.461 190.197 282.965 188.645 283.363 187.064C283.821 185.47 284.132 183.838 284.292 182.187C284.447 181.412 284.525 180.638 284.525 179.864C284.602 179.012 284.641 178.199 284.641 177.425C284.641 171.001 283.131 164.845 280.112 158.961C277.093 153 272.835 148.239 267.338 144.677C264.789 143.054 262.061 141.729 259.209 140.729C256.465 139.733 253.623 139.033 250.731 138.639C249.802 138.561 248.835 138.484 247.828 138.406C246.899 138.329 245.97 138.29 245.041 138.29C238.151 138.29 231.531 140.032 225.183 143.516ZM298.328 213.597V139.623H317.838L345.709 177.597C346.429 178.722 347.088 179.885 347.683 181.081C348.387 182.255 349.045 183.456 349.657 184.681L351.051 187.701C351.515 188.707 351.98 189.674 352.444 190.603C352.371 189.785 352.255 188.971 352.096 188.165C352.019 187.391 351.941 186.578 351.864 185.726C351.706 184.142 351.59 182.555 351.515 180.965C351.435 179.302 351.396 177.636 351.399 175.971V139.623H370.792V213.597H351.399L323.296 175.391C322.522 174.462 321.786 173.378 321.09 172.14C320.386 170.808 319.727 169.452 319.116 168.075C318.666 167.1 318.202 166.132 317.722 165.172C317.363 164.232 316.975 163.302 316.561 162.385C316.948 164.785 317.258 167.224 317.49 169.701C317.722 172.178 317.832 174.656 317.838 177.133V213.597H298.328ZM405.788 139.623L380.356 213.597H400.33L404.162 200.242H432.73L436.446 213.597H456.652L430.988 139.623H405.788ZM408.46 185.958L416.008 161.455C416.315 160.38 416.587 159.296 416.821 158.203C417.137 157.092 417.408 155.969 417.633 154.836C417.71 154.681 417.75 154.565 417.75 154.487C417.75 154.333 417.788 154.178 417.866 154.023C417.943 153.558 418.021 153.132 418.098 152.745C418.253 152.281 418.369 151.855 418.446 151.468C418.524 151.855 418.601 152.281 418.679 152.745C418.756 153.133 418.872 153.558 419.027 154.023C419.269 155.306 419.54 156.584 419.84 157.855C420.216 159.059 420.603 160.259 421.001 161.455L428.55 185.958H408.46ZM263.158 185.206C263.39 184.432 263.584 183.619 263.738 182.767C263.971 181.916 264.126 181.064 264.203 180.212C264.281 179.671 264.319 179.129 264.319 178.587C264.397 178.045 264.435 177.541 264.435 177.077C264.435 176.61 264.396 176.144 264.319 175.683V174.29C263.932 170.96 262.926 167.748 261.299 164.651C259.674 161.554 257.429 159.154 254.564 157.451C253.79 157.064 253.016 156.716 252.242 156.406C251.468 156.096 250.693 155.826 249.919 155.593C249.151 155.439 248.376 155.323 247.597 155.245C246.832 155.091 246.054 155.013 245.274 155.012C241.326 155.012 237.687 156.252 234.358 158.729C231.029 161.206 228.706 164.496 227.39 168.599L227.158 169.064V169.528C226.919 170.251 226.725 170.988 226.578 171.735C226.423 172.432 226.268 173.167 226.113 173.941L225.881 175.567V178.006C225.881 178.238 225.919 178.509 225.997 178.819C226.229 182.922 227.467 186.832 229.713 190.548C232.035 194.186 235.21 196.586 239.235 197.748L240.629 198.212C241.093 198.29 241.597 198.367 242.139 198.444L243.532 198.677H244.926C249.029 198.677 252.706 197.477 255.958 195.077C259.287 192.599 261.687 189.309 263.158 185.206ZM169.157 211.739C173.415 210.809 177.363 209.106 181.002 206.629H181.003C185.493 203.377 188.938 199.197 191.338 194.087C193.738 188.977 195.054 183.674 195.287 178.177V175.274C195.287 174.809 195.248 174.345 195.17 173.881C194.861 168.615 193.506 163.506 191.106 158.551C188.706 153.597 185.338 149.61 181.003 146.591C177.639 144.132 173.805 142.393 169.739 141.481C165.713 140.552 161.609 139.971 157.429 139.739C156.268 139.661 155.068 139.623 153.829 139.623H128.745V213.597H152.551C153.791 213.597 155.03 213.558 156.267 213.481C160.602 213.249 164.899 212.669 169.157 211.739ZM148.602 196.99C148.834 196.99 149.067 197.029 149.299 197.106H150.112C150.422 197.106 150.692 197.146 150.925 197.223H154.06C154.912 197.145 155.725 197.068 156.499 196.99C158.503 196.837 160.486 196.487 162.421 195.945C164.357 195.403 166.099 194.59 167.647 193.506C170.125 191.726 171.944 189.326 173.105 186.306C174.337 183.242 174.968 179.97 174.963 176.668V175.738C174.963 175.429 174.925 175.119 174.847 174.81C174.695 171.877 173.985 169 172.757 166.332C171.518 163.545 169.815 161.339 167.647 159.712C166.057 158.414 164.189 157.5 162.189 157.042C160.208 156.571 158.185 156.299 156.15 156.229H148.602V196.99ZM68.692 139.622V213.596H114.098V196.99H88.55V184.448H112.589V168.654H88.55V155.764H114.098V139.622H68.692ZM351.039 336.005C350.926 336.296 350.869 336.588 350.869 336.882C350.869 337.6 351.116 338.151 351.609 338.531C352.104 338.915 352.679 339.105 353.329 339.105C353.305 339.486 353.205 339.823 353.025 340.115C352.846 340.406 352.617 340.663 352.349 340.875C352.082 341.088 351.795 341.268 351.492 341.414C351.188 341.559 350.914 341.676 350.664 341.766L352.014 343.756C352.047 343.74 352.079 343.724 352.112 343.709L352.141 343.695L352.198 343.669C352.26 343.64 352.322 343.613 352.384 343.586C352.59 343.498 352.83 343.378 353.11 343.234C353.418 343.071 353.716 342.891 354.003 342.694C354.305 342.491 354.588 342.26 354.846 342.003C355.399 341.454 355.839 340.801 356.142 340.083C356.446 339.364 356.597 338.575 356.597 337.725C356.597 337.274 356.531 336.848 356.395 336.444C356.26 336.04 356.07 335.692 355.823 335.4C355.532 335.083 355.176 334.843 354.762 334.673C354.346 334.505 353.914 334.421 353.464 334.421C353.059 334.421 352.694 334.495 352.369 334.641C352.059 334.776 351.778 334.97 351.542 335.213C351.319 335.449 351.151 335.712 351.039 336.005ZM358.706 336.882C358.706 336.589 358.763 336.296 358.873 336.005C358.986 335.712 359.155 335.449 359.379 335.213C359.606 334.978 359.879 334.785 360.204 334.641C360.531 334.496 360.894 334.421 361.3 334.421C361.75 334.421 362.183 334.505 362.597 334.673C363.014 334.843 363.367 335.083 363.658 335.4C363.908 335.692 364.098 336.04 364.232 336.444C364.366 336.849 364.434 337.275 364.434 337.725C364.443 338.534 364.288 339.336 363.979 340.083C363.675 340.801 363.234 341.453 362.681 342.003C362.422 342.26 362.139 342.491 361.836 342.694C361.55 342.893 361.252 343.073 360.943 343.234C360.663 343.379 360.423 343.498 360.218 343.586C360.094 343.64 359.97 343.697 359.848 343.756L358.5 341.766C358.747 341.677 359.02 341.559 359.325 341.414C359.629 341.268 359.915 341.088 360.185 340.875C360.453 340.661 360.679 340.408 360.858 340.115C361.039 339.823 361.14 339.487 361.162 339.105C360.54 339.116 359.934 338.913 359.443 338.531C358.953 338.151 358.706 337.6 358.706 336.883V336.882ZM93.976 279.041C94.089 278.75 94.146 278.457 94.146 278.166H94.147C94.147 277.447 93.899 276.898 93.407 276.517C92.913 276.135 92.339 275.945 91.689 275.945C91.712 275.562 91.812 275.224 91.992 274.932C92.172 274.64 92.395 274.387 92.665 274.174C92.935 273.96 93.222 273.781 93.525 273.635C93.7943 273.505 94.0696 273.387 94.35 273.283L93.002 271.295C92.958 271.317 92.835 271.375 92.632 271.462C92.429 271.551 92.187 271.67 91.907 271.814C91.5989 271.976 91.3007 272.156 91.014 272.354C90.7106 272.556 90.4278 272.787 90.17 273.044C89.617 273.594 89.1764 274.246 88.873 274.964C88.57 275.684 88.418 276.472 88.418 277.324C88.4158 277.759 88.4841 278.191 88.62 278.604C88.7421 278.986 88.9367 279.341 89.193 279.649C89.4882 279.966 89.8503 280.214 90.253 280.374C90.6648 280.542 91.1054 280.627 91.55 280.626C92.2723 280.636 92.9672 280.35 93.473 279.834C93.6917 279.606 93.8627 279.336 93.976 279.041ZM86.31 278.166C86.3052 278.788 86.0647 279.385 85.637 279.836C85.4014 280.078 85.1208 280.272 84.811 280.407C84.485 280.553 84.119 280.627 83.715 280.627C83.27 280.628 82.8291 280.543 82.417 280.375C82.0144 280.214 81.6524 279.966 81.357 279.649C81.1 279.341 80.9054 278.986 80.784 278.604C80.6476 278.191 80.5793 277.759 80.582 277.324C80.582 276.472 80.732 275.684 81.037 274.964C81.34 274.246 81.7806 273.593 82.334 273.044C82.581 272.796 82.861 272.567 83.177 272.353C83.491 272.141 83.789 271.96 84.07 271.813C84.35 271.669 84.59 271.551 84.794 271.463L84.8507 271.437C85.0195 271.361 85.1254 271.314 85.166 271.293L86.513 273.281C86.265 273.371 85.991 273.489 85.687 273.634C85.384 273.781 85.097 273.96 84.83 274.172C84.5625 274.384 84.3337 274.641 84.154 274.931C83.975 275.223 83.874 275.561 83.852 275.943C84.502 275.943 85.076 276.133 85.57 276.516C86.063 276.898 86.31 277.446 86.31 278.166ZM335.475 335.04H331.66L343.541 314.404H347.317L335.475 335.04ZM331.479 336.528C330.243 336.528 329.298 337.508 329.298 338.746C329.298 339.984 330.244 340.926 331.479 340.926C332.711 340.926 333.696 339.982 333.696 338.746C333.696 337.51 332.711 336.528 331.479 336.528ZM306.217 329.113L305.127 331.001C305.962 333.472 309.266 332.092 310.396 330.13L312.211 327.006C313.556 324.716 310.577 323.045 306.217 329.113ZM330.219 333.981C330.001 333.401 329.347 332.818 328.802 332.674L328.547 332.966C327.218 334.526 325.691 335.905 324.005 337.07C324.475 335.659 324.722 333.951 324.988 332.105C325.4 329.246 325.86 326.056 327.273 323.12L324.438 321.593C324.16 321.975 323.822 322.446 323.437 322.985L323.436 322.986L323.436 322.986C321.659 325.469 318.852 329.39 316.046 332.674C316.052 332.684 316.062 332.692 316.067 332.699C316.061 332.696 316.054 332.692 316.047 332.688C316.039 332.682 316.03 332.677 316.022 332.674L315.769 332.966C313.042 336.126 310.392 338.632 308.719 338.632C307.885 338.632 307.085 337.796 307.085 336.089V334.527C309.737 334.854 312.535 333.109 314.315 330.023L315.331 328.28C318.853 322.25 313.114 320.25 309.263 323.776L314.638 314.439H310.859L300.084 333.134C299.877 332.951 299.645 332.797 299.395 332.677L299.139 332.969C296.416 336.129 292.928 338.635 290.276 338.635C287.951 338.635 286.571 337.182 288.315 334.131L292.199 327.374C294.379 323.632 298.231 324.25 295.977 328.174L295.433 329.118H298.523L299.068 328.174C301.102 324.686 299.139 322.07 296.053 322.07C293.002 322.07 290.566 323.67 288.968 326.43L285.25 332.81C285.23 332.798 285.21 332.786 285.19 332.774C285.131 332.738 285.072 332.702 285.017 332.678L284.762 332.97C282.038 336.13 279.387 338.636 277.715 338.636C276.879 338.636 276.409 338.056 277.279 336.566L285.345 322.433H281.565L274.846 334.167C271.973 336.782 269.761 338.235 269.032 337.909C268.156 337.539 268.905 336.293 269.396 335.477C269.434 335.413 269.471 335.352 269.505 335.294L276.879 322.433H273.101L265.763 335.128C265.257 335.589 264.454 336.019 263.73 336.408C263.286 336.646 262.872 336.868 262.573 337.072C263.044 335.66 263.29 333.952 263.557 332.105V332.105L263.557 332.104C263.969 329.246 264.43 326.057 265.842 323.122L263.01 321.595C261.447 323.738 252.727 335.293 249.312 339.288C249.637 339.76 250.184 340.233 250.728 340.596C252.871 338.126 260.066 328.862 261.41 327.082C260.909 328.4 260.667 330.072 260.43 331.71C259.961 334.947 259.511 338.054 257.122 338.054C255.852 338.054 255.342 336.672 255.342 336.672L252.981 337.908C252.981 337.908 253.671 340.958 257.121 340.958C257.455 340.958 257.757 340.928 258.085 340.895L258.085 340.895L258.177 340.886C258.184 340.886 258.19 340.885 258.197 340.883C258.203 340.881 258.209 340.878 258.215 340.875C258.22 340.873 258.225 340.871 258.23 340.868L258.23 340.868C258.241 340.863 258.251 340.857 258.262 340.854L258.267 340.852L258.27 340.851C258.275 340.851 258.279 340.85 258.283 340.85C260.203 340.596 262.861 339.712 264.643 338.48C264.631 340.017 265.559 340.958 267.143 340.958C269.211 340.958 271.538 339.069 273.353 337.326C272.992 339.361 274.188 340.958 276.588 340.958C278.934 340.958 281.547 339.072 284.025 336.595C284.059 339.105 285.993 340.958 289.151 340.958C292.217 340.958 295.265 339.245 297.892 336.942L295.787 340.596H299.603L303.926 333.076V336.09C303.926 339.322 304.543 340.958 307.596 340.958C310.719 340.958 314.317 337.617 317.441 333.983C317.439 333.98 317.437 333.977 317.434 333.973C317.428 333.966 317.422 333.958 317.421 333.949C317.435 333.961 317.452 333.972 317.468 333.983C319.181 332.009 320.733 329.918 321.971 328.249C322.282 327.83 322.574 327.437 322.843 327.079C322.343 328.397 322.102 330.067 321.865 331.705C321.396 334.943 320.946 338.052 318.556 338.052C317.286 338.052 316.776 336.67 316.776 336.67L314.414 337.906C314.414 337.906 315.105 340.956 318.556 340.956C318.884 340.956 319.182 340.927 319.508 340.894L319.612 340.884C319.628 340.884 319.643 340.877 319.659 340.869C319.678 340.859 319.697 340.849 319.717 340.849C323.57 340.337 327.385 337.287 330.218 333.979L330.219 333.981ZM215.445 332.895H215.628L218.388 328.173C220.676 324.248 217.044 322.468 214.391 326.973L212.575 330.061L209.705 335.038C207.452 338.962 211.776 339.542 213.555 336.492L213.592 336.419C213.374 336.057 213.229 335.622 213.229 335.15C213.229 333.912 214.21 332.895 215.445 332.895ZM190.198 347.026C189.398 348.443 188.126 348.226 188.126 347.21C188.126 346.23 189.035 345.104 191.941 343.976L190.198 347.026ZM155.353 338.599C156.915 338.599 159.168 336.891 161.456 333.296L164.397 328.136C166.251 324.72 162.219 323.813 160.184 327.335L154.917 336.528C154.046 338.019 154.518 338.599 155.353 338.599ZM149.402 318.546C150.528 316.619 151.764 315.784 152.817 315.784C154.235 315.784 154.888 316.728 154.888 318.109C154.888 321.633 150.524 328.942 144.716 327.99H143.953L149.402 318.546ZM241.925 332.932L242.179 332.64L242.18 332.641C242.69 332.859 243.343 333.441 243.598 333.952C240.472 337.585 236.878 340.927 233.752 340.927C230.699 340.927 229.574 338.35 231.172 335.551L236.076 327.013C237.712 324.215 235.132 323.272 229.355 330.502L223.579 340.565H219.764L222.304 336.171C220.618 337.101 218.75 337.621 217.37 337.621H216.535C212.297 342.979 205.269 341.776 205.789 336.499C202.537 339.718 199.423 341.677 196.264 342.671L193.358 347.649C190.636 352.299 185.076 351.535 185.076 347.902C185.076 345.07 188.273 342.961 193.396 341.437L195.467 337.877C193.758 339.401 191.689 340.927 189.872 340.927C187.99 340.927 187.031 339.595 187.484 337.517C185.31 339.507 183.077 340.927 181.044 340.927C177.993 340.927 176.867 338.351 178.465 335.551L183.369 327.017C185.004 324.218 182.424 323.275 176.647 330.505L170.871 340.568H167.057L168.449 338.157C166.507 339.806 164.539 340.93 162.729 340.93C160.805 340.93 159.641 339.915 159.461 338.461C157.644 339.95 155.755 340.93 154.229 340.93C151.554 340.93 150.358 338.949 151.181 336.575L150.957 336.788L150.957 336.788C148.467 339.157 146.604 340.93 142.5 340.93C137.16 340.93 135.599 335.846 138.25 331.268L139.375 329.304C136.325 327.706 134.617 324.799 134.617 321.786C134.617 319.24 135.814 316.664 138.504 314.736L139.739 316.954C138.105 318.224 137.305 319.968 137.305 321.711C137.305 323.819 138.469 325.926 140.685 327.089L146.571 316.952C148.277 313.974 150.748 312.52 152.819 312.52C155.615 312.52 157.832 314.735 157.832 318.15C157.832 319.64 157.359 321.383 156.306 323.236C153.327 328.431 148.749 330.503 144.716 330.503C143.955 330.503 143.264 330.426 142.574 330.319L141.519 332.171C139.269 336.023 140.83 338.602 143.409 338.602C147.084 338.602 149.168 336.185 151.822 333.106L151.969 332.935L152.223 332.643C152.494 332.716 152.791 332.898 153.051 333.131L156.954 326.395C158.55 323.632 161.386 322.035 163.419 322.035C165.89 322.035 167.525 324.251 167.38 325.849H169.523L163.419 336.529C162.548 338.021 163.02 338.601 163.855 338.601C165.528 338.601 168.18 336.094 170.903 332.934L171.157 332.642C171.282 332.7 171.402 332.767 171.516 332.844L177.554 322.399H181.334L179.917 324.868C181.805 322.906 183.513 322.034 185.148 322.034C187.255 322.034 188.817 324.106 187.182 326.976L181.733 336.529C180.862 338.021 181.334 338.601 182.169 338.601C183.841 338.601 186.492 336.094 189.217 332.934L189.471 332.642C189.586 332.696 189.697 332.758 189.802 332.829L195.83 322.399H199.608L192.233 335.259L192.186 335.339L192.122 335.445C191.632 336.263 190.887 337.506 191.761 337.875C192.487 338.201 194.74 336.712 197.647 334.025L204.33 322.399H208.109L197.754 340.129C200.732 338.854 203.384 336.529 206.509 332.934L206.763 332.643C206.882 332.697 206.996 332.761 207.105 332.833L208.725 330.063L210.577 326.83C212.758 323.052 215.009 321.89 217.916 321.89C221.478 321.89 223.584 325.629 221.296 329.591L217.736 335.731C219.625 335.694 221.733 334.784 223.439 332.932L223.694 332.64C223.864 332.72 224.026 332.817 224.176 332.93L230.264 322.397H234.043L232.626 324.866C234.516 322.904 236.221 322.033 237.857 322.033C239.962 322.033 241.528 324.104 239.892 326.974L234.442 336.527C233.571 338.019 234.042 338.599 234.878 338.599C236.55 338.599 239.203 336.092 241.925 332.932ZM360.81 297.068C358.52 300.809 356.195 302.589 354.598 302.589C353.763 302.589 353.291 302.009 354.161 300.519L359.428 291.326C361.463 287.802 365.495 288.711 363.642 292.126H363.677L360.81 297.068ZM318.519 302.589C320.08 302.589 322.333 300.881 324.623 297.287L327.564 292.126C329.416 288.711 325.384 287.802 323.35 291.326L318.082 300.519C317.212 302.009 317.683 302.589 318.519 302.589ZM284.706 311.017C283.909 312.434 282.636 312.217 282.636 311.201C282.636 310.22 283.508 309.094 286.415 307.967L284.706 311.017ZM296.151 279.776C295.096 279.776 293.861 280.61 292.734 282.536L287.286 291.981H288.049C297.676 294.211 302.145 279.776 296.151 279.776ZM370.398 296.633L370.143 296.923C367.423 300.083 364.769 302.59 363.096 302.59C362.261 302.59 361.789 302.01 362.659 300.519L375.448 278.395H371.669L366.112 287.986C365.458 286.932 364.222 286.024 362.659 286.024C360.624 286.024 357.792 287.623 356.193 290.383L352.495 296.763C352.482 296.756 352.469 296.748 352.456 296.74L352.431 296.725C352.373 296.69 352.315 296.655 352.261 296.631L352.006 296.923C349.283 300.083 347.006 302.589 345.334 302.589C344.497 302.589 344.027 302.009 344.896 300.519L350.346 290.964C351.983 288.094 350.418 286.022 348.312 286.022C346.676 286.022 344.972 286.893 343.08 288.857L344.497 286.387H340.718L334.681 296.834C334.566 296.757 334.446 296.689 334.321 296.631L334.065 296.923C331.342 300.083 328.691 302.589 327.019 302.589C326.184 302.589 325.713 302.009 326.583 300.519L332.686 289.837H330.542C330.688 288.239 329.054 286.022 326.582 286.022C324.547 286.022 321.712 287.621 320.114 290.38L316.462 296.686L316.256 296.92C313.534 300.079 310.506 302.585 308.836 302.585C307.999 302.585 307.529 302.005 308.399 300.515L312.177 293.904C313.484 291.614 312.866 290.271 311.632 288.781L309.526 286.237C308.981 285.547 308.981 284.784 309.744 284.057L307.782 281.914C305.638 283.841 305.457 285.983 306.8 287.727L307.129 288.163L306.995 288.352L306.995 288.353C305.337 290.695 303.139 293.8 300.732 296.628C300.773 296.687 300.818 296.745 300.866 296.803C300.906 296.851 300.947 296.9 300.99 296.948C297.877 300.528 295.231 302.843 292.26 304.11L297.055 295.9H293.277L292.878 296.555C290.88 300.079 288.59 302.586 285.648 302.586C283.068 302.586 282.598 300.007 284.848 296.156L285.903 294.304C286.611 294.421 287.327 294.481 288.045 294.485C301.488 294.485 307.991 276.503 296.149 276.503C294.077 276.503 291.605 277.957 289.899 280.935L284.014 291.07C281.798 289.909 280.636 287.802 280.636 285.695C280.636 283.952 281.436 282.207 283.068 280.937L281.835 278.72C279.145 280.646 277.947 283.224 277.947 285.767C277.947 288.783 279.656 291.689 282.707 293.287L281.58 295.25C278.928 299.828 279.4 304.913 284.742 304.913C286.34 304.913 287.683 304.441 288.847 303.713L287.864 305.423C282.744 306.983 279.582 309.054 279.582 311.888C279.582 315.52 285.142 316.284 287.864 311.634L290.771 306.657C294.696 305.422 298.547 302.734 302.689 297.938C302.622 297.812 302.543 297.693 302.453 297.583C304.131 295.612 305.555 293.709 308.403 289.837L308.91 290.456C309.383 291.072 309.564 291.836 309.128 292.6L305.131 299.537C303.532 302.332 304.659 304.911 307.711 304.911C309.61 304.911 312.059 303.672 314.096 301.887C314.052 303.625 315.24 304.911 317.395 304.911C318.92 304.911 320.81 303.931 322.625 302.441C322.808 303.895 323.972 304.911 325.895 304.911C327.705 304.911 329.672 303.786 331.615 302.137L330.223 304.549H334.036L339.813 294.484C345.59 287.255 348.17 288.2 346.533 290.997L341.63 299.535C340.033 302.333 341.157 304.911 344.208 304.911C346.218 304.911 348.044 303.527 350.19 301.578C349.99 303.471 351.194 304.911 353.472 304.911C354.997 304.911 356.886 303.931 358.704 302.441C358.886 303.896 360.049 304.911 361.973 304.911C365.098 304.911 368.693 301.57 371.818 297.935C371.562 297.431 370.909 296.85 370.398 296.633ZM261.897 292.127C264.151 288.203 260.298 287.586 258.118 291.328L255.684 295.578C257.1 296.086 259.535 296.16 261.352 293.071L261.897 292.127ZM255.067 304.915C259.354 304.915 263.607 301.574 266.729 297.94C266.476 297.43 265.821 296.85 265.312 296.632L265.059 296.924C262.333 300.084 258.846 302.59 256.192 302.59C253.867 302.59 252.487 301.137 254.23 298.085L254.593 297.432C257.028 298.448 261.605 297.977 264.439 293.072L264.984 292.128C267.019 288.639 265.057 286.024 261.968 286.024C258.918 286.024 256.484 287.622 254.885 290.383L251.206 296.696C251.168 296.676 251.13 296.648 251.094 296.632L250.839 296.924C248.115 300.084 245.464 302.59 243.792 302.59C242.956 302.59 242.486 302.01 243.355 300.519L248.805 290.964C250.44 288.094 248.877 286.022 246.769 286.022C245.134 286.022 243.39 286.931 241.503 288.893L247.533 278.393H243.755L233.099 296.883C232.964 296.785 232.819 296.7 232.667 296.631L232.412 296.922C229.687 300.083 227.036 302.589 225.364 302.589C224.529 302.589 224.057 302.009 224.927 300.519L233.029 286.385H236.119L237.209 284.568H234.084L237.644 278.393H233.866L230.306 284.568H226.891L225.801 286.385H229.251L221.658 299.538C220.06 302.337 221.186 304.915 224.237 304.915C226.115 304.915 228.163 303.702 230.177 301.951L228.678 304.551H232.493L238.233 294.559C244.046 287.257 246.626 288.202 244.991 290.999L240.086 299.537C238.488 302.335 239.614 304.913 242.666 304.913C244.962 304.913 247.512 303.108 249.942 300.708C250.052 303.139 251.975 304.915 255.067 304.915ZM131.372 292.126C133.626 288.202 129.776 287.585 127.596 291.327L125.161 295.576C126.577 296.085 129.013 296.158 130.828 293.07L131.372 292.126ZM150.715 300.518L155.983 291.327C158.017 287.801 162.05 288.71 160.196 292.126L157.254 297.285C154.966 300.88 152.711 302.589 151.15 302.589C150.316 302.589 149.843 302.008 150.715 300.519V300.518ZM208.475 292.126C210.729 288.202 206.879 287.585 204.699 291.327L202.264 295.576C203.68 296.084 206.115 296.158 207.93 293.07L208.475 292.126ZM146.891 300.853C146.264 303.093 147.461 304.913 150.025 304.913C151.55 304.913 153.44 303.933 155.255 302.444C155.438 303.897 156.601 304.914 158.525 304.914C160.538 304.914 162.743 303.524 164.894 301.568C164.476 303.61 165.433 304.914 167.294 304.914C169.367 304.914 171.692 303.024 173.507 301.28C173.143 303.316 174.344 304.914 176.741 304.914C179.866 304.914 183.461 301.572 186.586 297.938C186.571 297.909 186.551 297.879 186.53 297.85C186.515 297.829 186.499 297.808 186.486 297.787C188.126 295.879 189.614 293.88 190.816 292.265L190.816 292.265L190.816 292.264L190.817 292.264L190.817 292.263C191.145 291.822 191.452 291.411 191.734 291.037C191.233 292.355 190.991 294.026 190.754 295.665V295.665C190.285 298.901 189.835 302.009 187.446 302.009C186.176 302.009 185.666 300.627 185.666 300.627L183.303 301.862C183.303 301.862 183.993 304.914 187.445 304.914C187.769 304.914 188.063 304.885 188.382 304.853L188.499 304.841C188.518 304.841 188.536 304.832 188.554 304.823C188.572 304.815 188.589 304.806 188.607 304.806C191.383 304.439 194.136 302.75 196.52 300.597C196.578 303.083 198.506 304.914 201.645 304.914C205.932 304.914 210.183 301.573 213.307 297.938C213.053 297.428 212.399 296.848 211.891 296.63L211.637 296.922C208.912 300.082 205.424 302.589 202.774 302.589C200.448 302.589 199.067 301.135 200.811 298.084L201.175 297.43C203.607 298.446 208.185 297.975 211.02 293.07L211.565 292.127C213.599 288.638 211.637 286.023 208.55 286.023C205.5 286.023 203.063 287.621 201.467 290.381L197.797 296.675C197.781 296.67 197.765 296.661 197.749 296.653C197.73 296.644 197.712 296.634 197.693 296.629L197.439 296.92C196.11 298.48 194.583 299.86 192.897 301.026C193.368 299.614 193.614 297.906 193.881 296.059V296.059L193.881 296.059C194.294 293.201 194.755 290.011 196.167 287.075L193.334 285.549C193.05 285.939 192.705 286.421 192.309 286.973L192.309 286.973C190.53 289.458 187.736 293.36 184.941 296.629C184.952 296.644 184.964 296.659 184.976 296.675C184.984 296.684 184.992 296.694 185 296.703L185.002 296.706L185.003 296.707C185.019 296.727 185.036 296.747 185.051 296.767L184.916 296.92C182.192 300.08 179.54 302.587 177.868 302.587C177.033 302.587 176.561 302.007 177.432 300.517L185.497 286.382H181.718L174.998 298.116C172.128 300.732 169.913 302.185 169.184 301.858C168.308 301.488 169.059 300.24 169.55 299.423L169.551 299.421L169.56 299.406C169.581 299.373 169.6 299.34 169.619 299.308C169.632 299.286 169.645 299.264 169.658 299.243L177.031 286.383H173.253L167.24 296.788L167.206 296.767C167.12 296.714 167.034 296.661 166.953 296.627L166.699 296.917C163.974 300.077 161.323 302.584 159.651 302.584C158.816 302.584 158.344 302.004 159.215 300.514L165.318 289.832H163.174C163.32 288.234 161.686 286.016 159.214 286.016C157.18 286.016 154.346 287.616 152.748 290.376L148.918 296.988C148.741 296.844 148.548 296.722 148.342 296.625L148.088 296.915C145.364 300.075 142.23 302.582 139.578 302.582C137.254 302.582 135.872 301.129 137.615 298.078L141.502 291.322C143.682 287.58 147.533 288.197 145.279 292.12L144.734 293.065H147.824L148.368 292.12C150.402 288.633 148.441 286.016 145.354 286.016C142.302 286.016 140.22 287.616 138.624 290.376L134.868 296.819C134.758 296.745 134.642 296.68 134.521 296.625L134.267 296.915C131.543 300.075 128.32 302.582 125.669 302.582C123.343 302.582 121.962 301.129 123.706 298.078L124.069 297.424C126.503 298.442 131.081 297.969 133.915 293.066L134.46 292.12C136.494 288.634 134.532 286.017 131.444 286.017C128.394 286.017 125.958 287.615 124.361 290.377L120.401 297.169C118.038 301.202 120.074 304.907 124.541 304.907C127.87 304.907 130.554 302.892 133.329 300.29C133.231 302.927 135.187 304.907 138.45 304.907C141.538 304.913 144.25 303.179 146.891 300.853ZM113.07 281.662L110.019 286.893V286.894C113.87 286.821 116.015 285.985 117.465 283.261C119.355 279.7 115.83 276.905 113.07 281.662ZM105.951 304.113C103.698 304.113 101.918 303.605 100.501 302.807C101.155 302.043 101.808 301.098 102.391 300.118L108.747 289.11L109.764 289.218C118.63 291.073 115.105 304.113 105.951 304.113ZM115.288 288.638C122.916 286.057 123.497 276.503 115.977 276.503C113.906 276.503 111.436 277.956 109.729 280.935L99.556 298.519C99.1362 299.274 98.6503 299.991 98.104 300.66C95.488 297.065 96.251 291.689 99.92 289.326L98.393 287.4C90.473 292.45 92.799 307.017 106.023 307.017C117.322 307.019 122.553 293.471 115.288 288.638Z" fill="white"/>
</svg>
